HIERARCHY
ROOT Hips
{
    OFFSET 0.0 0.0 0.0
    CHANNELS 6 Xposition Yposition Zposition Zrotation Xrotation Yrotation
    JOINT LeftHipJoint
    {
        OFFSET 0.1 0.0 0.0
        CHANNELS 3 Zrotation Xrotation Yrotation
        JOINT LeftUpLeg
        {
            OFFSET 11.362306431761457 0.0 0.0
            CHANNELS 3 Zrotation Xrotation Yrotation
            JOINT LeftLeg
            {
                OFFSET 0.0 -49.54311506866986 0.0
                CHANNELS 3 Zrotation Xrotation Yrotation
                JOINT LeftFoot
                {
                    OFFSET 0.0 -47.3226039123563 0.0
                    CHANNELS 3 Zrotation Xrotation Yrotation
                    End Site
                    {
                        OFFSET 0.0 0.0 -0.1
                    }
                }
            }
        }
    }
    JOINT LowerBack
    {
        OFFSET 0.0 0.1 0.0
        CHANNELS 3 Zrotation Xrotation Yrotation
        JOINT Spine
        {
            OFFSET 0.0 23.7734860828389 0.0
            CHANNELS 3 Zrotation Xrotation Yrotation
            JOINT Spine1
            {
                OFFSET 0.0 25.638137968707934 0.0
                CHANNELS 3 Zrotation Xrotation Yrotation
                JOINT LeftShoulder
                {
                    OFFSET 0.1 0.0 0.0
                    CHANNELS 3 Zrotation Xrotation Yrotation
                    JOINT LeftArm
                    {
                        OFFSET 13.505195669849297 0.0 0.0
                        CHANNELS 3 Zrotation Xrotation Yrotation
                        JOINT LeftForeArm
                        {
                            OFFSET 27.63447433325428 0.0 0.0
                            CHANNELS 3 Zrotation Xrotation Yrotation
                            JOINT LeftHand
                            {
                                OFFSET 21.279673504043053 0.0 0.0
                                CHANNELS 3 Zrotation Xrotation Yrotation
                                End Site
                                {
                                    OFFSET 0.1 0.0 0.0
                                }
                            }
                        }
                    }
                }
                JOINT Neck
                {
                    OFFSET 0.0 0.1 0.0
                    CHANNELS 3 Zrotation Xrotation Yrotation
                    JOINT Neck1
                    {
                        OFFSET 0.0 15.122100355411579 0.0
                        CHANNELS 3 Zrotation Xrotation Yrotation
                        End Site
                        {
                            OFFSET 0.0 11.443440541606806 0.0
                        }
                    }
                }
                JOINT RightShoulder
                {
                    OFFSET -0.1 0.0 0.0
                    CHANNELS 3 Zrotation Xrotation Yrotation
                    JOINT RightArm
                    {
                        OFFSET -13.505195669849297 0.0 0.0
                        CHANNELS 3 Zrotation Xrotation Yrotation
                        JOINT RightForeArm
                        {
                            OFFSET -27.63447433325428 0.0 0.0
                            CHANNELS 3 Zrotation Xrotation Yrotation
                            JOINT RightHand
                            {
                                OFFSET -21.279673504043053 0.0 0.0
                                CHANNELS 3 Zrotation Xrotation Yrotation
                                End Site
                                {
                                    OFFSET -0.1 0.0 0.0
                                }
                            }
                        }
                    }
                }
            }
        }
    }
    JOINT RightHipJoint
    {
        OFFSET -0.1 0.0 0.0
        CHANNELS 3 Zrotation Xrotation Yrotation
        JOINT RightUpLeg
        {
            OFFSET -11.362306431761457 0.0 0.0
            CHANNELS 3 Zrotation Xrotation Yrotation
            JOINT RightLeg
            {
                OFFSET 0.0 -49.54311506866986 0.0
                CHANNELS 3 Zrotation Xrotation Yrotation
                JOINT RightFoot
                {
                    OFFSET 0.0 -47.3226039123563 0.0
                    CHANNELS 3 Zrotation Xrotation Yrotation
                    End Site
                    {
                        OFFSET 0.0 0.0 -0.1
                    }
                }
            }
        }
    }
}
MOTION
Frames: 7
Frame Time: 0.016666666666666666
0 0 0 0 0 0 0 0 0 0 0 0 0 0 0 0 0 0 0 0 0 0 0 0 0 0 0 0 0 0 0 0 0 0 0 0 0 0 0 0 0 0 0 0 0 0 0 0 0 0 0 0 0 0 0 0 0 0 0 0 0 0 0 0 0 0 0 0 0
0.0 0.0 100.47347915466602 -1.0872532523339364 -11.674146734339848 164.01259947351525 -3.975693351829396e-16 -1.8103912550596355e-33 5.218097524276082e-16 -0.5595372516893554 -12.745706123390887 0.38666105014303087 -0.6986191675504134 -7.395329649767064 0.12355580704104495 -3.975693351829396e-16 0.0 0.0 -3.975693351829396e-16 -1.8103912550596355e-33 5.218097524276082e-16 -1.9805985956296437 -23.429925904798214 0.11082929179028962 5.521792718747865e-16 -1.6061501077986967e-15 -3.167116494374636 7.951386703658791e-16 -1.3793457181406746e-33 -1.9878466759146977e-16 -78.1849598962543 -37.82942737195888 0.729117013121409 2.7709147055818528e-14 2.5604161107143063e-15 50.66473968093945 3.1805546814635168e-15 4.4139062980501586e-32 1.5902773407317584e-15 7.951386703658791e-16 -1.3793457181406746e-33 -1.9878466759146977e-16 0.7740322726319451 -9.94241334043334 -6.008530689382077 7.951386703658791e-16 -1.3793457181406746e-33 -1.9878466759146977e-16 77.36756042553539 -43.271547653586985 -0.8036041134277835 1.0805319288900095e-14 -7.430737006190904e-15 -40.959536456280595 6.361109362927035e-15 -6.361109362927035e-15 3.531125038440127e-31 -3.975693351829396e-16 -1.8103912550596355e-33 5.218097524276082e-16 2.791599312314297 -16.554482798461862 1.4309894506859666 -0.41148883074594234 -8.378987956674132 0.6467698274765198 1.987846675914698e-16 -8.189865201460255e-34 -4.721135855297407e-16
0.0 0.0 100.47347915466602 -1.0556233773198054 -11.307409184368728 164.3137735202305 -1.9878466759146977e-16 -1.5902773407317588e-15 4.4043227913235035e-15 -0.5616478235870459 -12.671015414003156 0.4635028148307555 -1.321991247881601 -7.332287856250541 0.08803443224775853 1.987846675914698e-16 1.7241821476758432e-34 9.93923337957349e-17 -1.9878466759146977e-16 -1.5902773407317588e-15 4.4043227913235035e-15 -2.383918584169111 -23.030404209230852 0.09356189246512091 -5.51545920646564e-16 1.606367708368189e-15 -3.2123001838456067 -3.975693351829396e-16 3.4483642953516864e-33 -9.93923337957349e-16 -78.60275608762466 -35.6978488222222 1.3519219492729926 -1.517581374337855e-14 -5.319113427328684e-15 49.98177678810069 0.0 1.5902773407317584e-15 0.0 -3.975693351829396e-16 3.4483642953516864e-33 -9.93923337957349e-16 0.737932177730744 -10.139130567892416 -6.4941485656367615 -3.975693351829396e-16 3.4483642953516864e-33 -9.93923337957349e-16 76.50862159307839 -42.635921996882615 -1.5803670377328165 -5.588588057682282e-15 -1.2823610206624079e-15 -41.53331321614083 0.0 0.0 -6.361109362927033e-15 -1.9878466759146977e-16 -1.5902773407317588e-15 4.4043227913235035e-15 2.365592757987913 -16.090801916546408 1.3747118898422268 -0.6208482667507125 -8.616496486459251 0.6261355967884408 5.963540027744094e-16 -5.17254644302753e-34 -9.93923337957349e-17
0.0 0.0 100.47347915466602 -0.7193851367793236 -11.280304324117482 164.7204429626008 -1.9878466759146977e-16 -1.9612571929812715e-33 1.1305877969264842e-15 -0.259200524726776 -12.913604341444724 0.5493072564872745 -1.7653794496494437 -7.139250704719655 0.0722729977376726 -1.987846675914698e-16 -1.2069275033730902e-33 6.957463365701443e-16 -1.9878466759146977e-16 -1.9612571929812715e-33 1.1305877969264842e-15 -2.622105743463038 -23.147291371106174 0.0174278538501819 -1.9870487502048328e-16 5.631759276217717e-18 -3.2469226412437777 3.975693351829396e-16 -5.172546443027529e-33 -1.4908850069360234e-15 -78.82264047411036 -35.213158608572925 2.3011627202185485 2.799135758270978e-15 1.2877889654187885e-15 49.41116241981839 -7.951386703658792e-16 0.0 0.0 3.975693351829396e-16 -5.172546443027529e-33 -1.4908850069360234e-15 1.136864554038066 -10.072440338237822 -6.874057458061856 3.975693351829396e-16 -5.172546443027529e-33 -1.4908850069360234e-15 75.22271560425192 -43.58675280526175 -2.5313050166456184 -8.203519863161942e-15 -3.691840531353354e-15 -41.54152874202557 0.0 0.0 0.0 -1.9878466759146977e-16 -1.9612571929812715e-33 1.1305877969264842e-15 2.2121874721763986 -16.034488593173617 1.3394969965922163 -0.43867418061879926 -8.533064578812416 0.6317139164910011 3.975693351829396e-16 -2.069018577211012e-33 -5.963540027744094e-16
0.0 0.0 100.47347915466602 -0.561869095785964 -11.165745967020547 164.98762878389402 6.344990303447103e-32 -1.5902773407317584e-15 4.572047354603805e-15 0.11983002858689279 -12.532647117957314 0.6134366194070849 -2.3444669112928294 -7.119935865271195 0.04514752577929611 3.975693351829396e-16 -2.2414367919785963e-33 -6.460501696722769e-16 6.344990303447103e-32 -1.5902773407317584e-15 4.572047354603805e-15 -3.0225397813295847 -22.977502363290437 -0.14369576610494414 -5.505267693371287e-16 1.6067172723641076e-15 -3.2849942670805805 -3.975693351829396e-16 -1.7241821476758432e-33 4.969616689786745e-16 -78.56388812664623 -34.76364843801305 2.9350813424641755 3.989239835312459e-15 -8.667717016168193e-15 49.42766370823401 -2.3854160110976376e-15 0.0 0.0 -3.975693351829396e-16 -1.7241821476758432e-33 4.969616689786745e-16 1.4939822707010393 -9.744488594376206 -6.928679874615039 -3.975693351829396e-16 -1.7241821476758432e-33 4.969616689786745e-16 74.91302280081894 -43.835556652938045 -2.9690697409839486 -1.2999627196159253e-14 1.5101651233250016e-14 -41.33479317918993 1.5902773407317584e-15 0.0 0.0 6.344990303447103e-32 -1.5902773407317584e-15 4.572047354603805e-15 2.1183862934521205 -15.938082575857035 1.3024008296196512 -0.2236944166882094 -8.594806575281607 0.6536164247745488 0.0 0.0 1.987846675914698e-16
0.0 0.0 100.47347915466602 -0.29465044789391587 -11.124817029853237 165.07193019924603 -3.793200724886855e-33 1.5902773407317582e-15 2.7332891793827095e-16 0.5934172102265793 -12.349508823267982 0.6939381133203277 -2.938041438363069 -7.30464598538329 0.022656193191561484 -3.975693351829396e-16 -1.7241821476758432e-34 4.969616689786745e-17 -3.793200724886855e-33 1.5902773407317582e-15 2.7332891793827095e-16 -2.8818907512129233 -22.946785673414723 -0.11144241298530767 -3.510163630545215e-16 1.601196711709918e-15 -3.342780963620617 -1.987846675914698e-16 -1.7241821476758432e-33 9.93923337957349e-16 -78.53908338591685 -35.31803484416844 3.1149533633869013 -1.4214655718748145e-14 5.119808912944002e-16 49.004547754370286 0.0 0.0 0.0 -1.987846675914698e-16 -1.7241821476758432e-33 9.93923337957349e-16 1.7565912604034164 -9.46348159681022 -6.986847584705804 -1.987846675914698e-16 -1.7241821476758432e-33 9.93923337957349e-16 74.72659699244431 -44.278110124520765 -2.546709806444302 1.374004152443766e-14 5.1161245728131844e-15 -40.35681237294492 1.5902773407317584e-15 -4.4139062980501586e-32 -3.1805546814635168e-15 -3.793200724886855e-33 1.5902773407317582e-15 2.7332891793827095e-16 2.3626751983271497 -15.891694578541355 1.3497842225547834 -0.31157217353166256 -8.572745614168031 0.6657330766677786 1.987846675914698e-16 -4.310455369189608e-34 -2.4848083448933725e-16
0.0 0.0 100.47347915466602 -0.41093528519036676 -11.19201883747761 165.53521333221545 0.0 0.0 -3.60297210009539e-16 0.4097664399860265 -12.673540429319791 0.7409791781702719 -3.607398565993318 -6.988034983047902 -0.04449191691970328 3.975693351829396e-16 1.034509288605506e-33 2.981770013872047e-16 0.0 0.0 -3.60297210009539e-16 -3.0708149540390703 -23.45369331078449 -0.06306198005273148 1.836335619748973e-15 1.5354466391612483e-15 -3.4659131074672276 -5.963540027744094e-16 -1.551763932908259e-33 2.981770013872047e-16 -78.43078371931588 -35.8331311763439 2.8422005869441525 9.969456687955963e-15 7.913459675244439e-15 47.942423785818114 0.0 0.0 0.0 -5.963540027744094e-16 -1.551763932908259e-33 2.981770013872047e-16 1.085285340599008 -9.128826801963532 -7.472934272117835 -5.963540027744094e-16 -1.551763932908259e-33 2.981770013872047e-16 74.10915758834064 -45.20367153170155 -2.433330268182146 5.298709747388373e-15 -8.695512512277309e-15 -39.967348827201 0.0 0.0 0.0 0.0 0.0 -3.60297210009539e-16 2.0366909088939757 -15.799764674899638 1.3392499548120245 -0.18734977862347557 -8.556145351971807 0.6819785005753808 1.987846675914698e-16 -1.2069275033730902e-33 -6.957463365701443e-16
